<?xml version="1.0" encoding="UTF-8" standalone="no"?>
<!-- Created with Inkscape (http://www.inkscape.org/) -->

<svg
   width="100mm"
   height="100mm"
   viewBox="0 0 100 100"
   version="1.1"
   id="svg5"
   inkscape:version="1.1.2 (0a00cf5339, 2022-02-04, custom)"
   sodipodi:docname="big-noise-reduction-o.svg"
   xmlns:inkscape="http://www.inkscape.org/namespaces/inkscape"
   xmlns:sodipodi="http://sodipodi.sourceforge.net/DTD/sodipodi-0.dtd"
   xmlns="http://www.w3.org/2000/svg"
   xmlns:svg="http://www.w3.org/2000/svg">
  <sodipodi:namedview
     id="namedview7"
     pagecolor="#ffffff"
     bordercolor="#666666"
     borderopacity="1.0"
     inkscape:pageshadow="2"
     inkscape:pageopacity="0.0"
     inkscape:pagecheckerboard="0"
     inkscape:document-units="mm"
     showgrid="false"
     inkscape:zoom="1.2837595"
     inkscape:cx="-41.674473"
     inkscape:cy="277.69999"
     inkscape:window-width="1920"
     inkscape:window-height="1008"
     inkscape:window-x="4240"
     inkscape:window-y="0"
     inkscape:window-maximized="1"
     inkscape:current-layer="layer1" />
  <defs
     id="defs2">
    <style
       id="style563">.cls-1{fill:#002a44;}.cls-2{fill:none;stroke:#2991c9;stroke-miterlimit:10;stroke-width:5px;}.cls-3{fill:#2991c9;}.cls-4{fill:#fff;}</style>
  </defs>
  <g
     inkscape:label="Camada 1"
     inkscape:groupmode="layer"
     id="layer1">
    <path
       class="cls-1"
       d="m 34.837953,51.250242 v 3.921299 a 16.499123,16.499123 0 0 0 16.444128,16.444123 v 0 a 16.499123,16.499123 0 0 0 16.44413,-16.444123 v -3.921299 z"
       id="path4643"
       style="fill:#ffffff;fill-opacity:1;stroke-width:0.549973" />
    <path
       id="path4645"
       style="fill:#ffffff;fill-opacity:1;stroke-width:0.549973"
       class="cls-1"
       d="M 51.282135,7.5219359 A 16.499121,16.499121 0 0 0 34.837821,23.960688 V 48.417974 H 67.726117 V 23.960688 A 16.499121,16.499121 0 0 0 51.282135,7.5219359 Z m -3.844198,8.0956581 a 2.3318762,2.3318762 0 0 1 2.331818,2.331827 2.3318762,2.3318762 0 0 1 -2.331818,2.331812 2.3318762,2.3318762 0 0 1 -2.332141,-2.331812 2.3318762,2.3318762 0 0 1 2.332141,-2.331827 z m 7.688394,0 a 2.3318762,2.3318762 0 0 1 2.331817,2.331827 2.3318762,2.3318762 0 0 1 -2.331817,2.331812 2.3318762,2.3318762 0 0 1 -2.331821,-2.331812 2.3318762,2.3318762 0 0 1 2.331821,-2.331827 z m -15.377119,7.210198 a 2.3318762,2.3318762 0 0 1 2.331821,2.331826 2.3318762,2.3318762 0 0 1 -2.331821,2.331813 2.3318762,2.3318762 0 0 1 -2.33181,-2.331813 2.3318762,2.3318762 0 0 1 2.33181,-2.331826 z m 7.688725,0 a 2.3318762,2.3318762 0 0 1 2.331818,2.331826 2.3318762,2.3318762 0 0 1 -2.331818,2.331813 2.3318762,2.3318762 0 0 1 -2.332141,-2.331813 2.3318762,2.3318762 0 0 1 2.332141,-2.331826 z m 7.688394,0 a 2.3318762,2.3318762 0 0 1 2.331817,2.331826 2.3318762,2.3318762 0 0 1 -2.331817,2.331813 2.3318762,2.3318762 0 0 1 -2.331821,-2.331813 2.3318762,2.3318762 0 0 1 2.331821,-2.331826 z m 7.688721,0 a 2.3318762,2.3318762 0 0 1 2.33182,2.331826 2.3318762,2.3318762 0 0 1 -2.33182,2.331813 2.3318762,2.3318762 0 0 1 -2.331821,-2.331813 2.3318762,2.3318762 0 0 1 2.331821,-2.331826 z m -23.06584,7.506994 a 2.3318762,2.3318762 0 0 1 2.331821,2.331813 2.3318762,2.3318762 0 0 1 -2.331821,2.332151 2.3318762,2.3318762 0 0 1 -2.33181,-2.332151 2.3318762,2.3318762 0 0 1 2.33181,-2.331813 z m 7.688725,0 a 2.3318762,2.3318762 0 0 1 2.331818,2.331813 2.3318762,2.3318762 0 0 1 -2.331818,2.332151 2.3318762,2.3318762 0 0 1 -2.332141,-2.332151 2.3318762,2.3318762 0 0 1 2.332141,-2.331813 z m 7.688394,0 a 2.3318762,2.3318762 0 0 1 2.331817,2.331813 2.3318762,2.3318762 0 0 1 -2.331817,2.332151 2.3318762,2.3318762 0 0 1 -2.331821,-2.332151 2.3318762,2.3318762 0 0 1 2.331821,-2.331813 z m 7.688721,0 a 2.3318762,2.3318762 0 0 1 2.33182,2.331813 2.3318762,2.3318762 0 0 1 -2.33182,2.332151 2.3318762,2.3318762 0 0 1 -2.331821,-2.332151 2.3318762,2.3318762 0 0 1 2.331821,-2.331813 z m -23.06584,7.787764 a 2.3318762,2.3318762 0 0 1 2.331821,2.331812 2.3318762,2.3318762 0 0 1 -2.331821,2.331814 2.3318762,2.3318762 0 0 1 -2.33181,-2.331814 2.3318762,2.3318762 0 0 1 2.33181,-2.331812 z m 7.688725,0 a 2.3318762,2.3318762 0 0 1 2.331818,2.331812 2.3318762,2.3318762 0 0 1 -2.331818,2.331814 2.3318762,2.3318762 0 0 1 -2.332141,-2.331814 2.3318762,2.3318762 0 0 1 2.332141,-2.331812 z m 7.688394,0 a 2.3318762,2.3318762 0 0 1 2.331817,2.331812 2.3318762,2.3318762 0 0 1 -2.331817,2.331814 2.3318762,2.3318762 0 0 1 -2.331821,-2.331814 2.3318762,2.3318762 0 0 1 2.331821,-2.331812 z m 7.688721,0 a 2.3318762,2.3318762 0 0 1 2.33182,2.331812 2.3318762,2.3318762 0 0 1 -2.33182,2.331814 2.3318762,2.3318762 0 0 1 -2.331821,-2.331814 2.3318762,2.3318762 0 0 1 2.331821,-2.331812 z" />
    <path
       class="cls-2"
       d="m 30.575682,51.206248 v 4.240266 a 20.420416,20.420416 0 0 0 20.348922,20.348922 v 0 A 20.420416,20.420416 0 0 0 71.273522,55.446514 v -4.240266"
       id="path4647"
       style="fill:none;fill-opacity:1;stroke:#ffffff;stroke-width:3.559;stroke-miterlimit:10;stroke-dasharray:none;stroke-opacity:1" />
    <path
       id="rect4649"
       style="fill:#ffffff;fill-opacity:1;stroke-width:0.434015"
       class="cls-3"
       d="m 47.990547,77.296116 v 9.371234 c -8.575834,0.441243 -15.127269,2.765602 -15.127269,5.574262 h 36.158677 c 0,-2.810408 -6.563768,-5.13508 -15.147462,-5.574262 v -9.371234 c -2.141434,0.288692 -4.06853,0.233848 -5.883946,0 z"
       sodipodi:nodetypes="ccccccc" />
    <path
       id="rect4653"
       style="fill:#ffffff;fill-opacity:1;stroke-width:0.549973"
       class="cls-3"
       d="m 77.571857,13.138205 c -0.828738,0 -1.49455,0.665841 -1.49455,1.494541 v 32.455968 c 0,0.828686 0.665816,1.494554 1.49455,1.494554 h 0.08755 c 0.828739,0 1.494547,-0.665842 1.494547,-1.494554 V 14.632746 c 0,-0.828686 -0.665801,-1.494541 -1.494547,-1.494541 z m 4.88085,6.21382 c -0.828739,0 -1.494549,0.665842 -1.494549,1.494555 v 20.53996 c 0,0.828687 0.665801,1.501277 1.494549,1.501277 h 0.08754 c 0.828739,0 1.501282,-0.672486 1.501282,-1.501277 V 20.84658 c 0,-0.828686 -0.672538,-1.494555 -1.501282,-1.494555 z m -9.768433,4.907777 c -0.828739,0 -1.494545,0.665841 -1.494545,1.494553 v 10.212751 c 0,0.828685 0.6658,1.494553 1.494545,1.494553 h 0.08755 c 0.828738,0 1.501282,-0.665841 1.501282,-1.494553 V 25.754355 c 0,-0.828687 -0.672537,-1.494553 -1.501282,-1.494553 z m 19.530131,0.12767 c -0.828739,0 -1.494551,0.665842 -1.494551,1.49454 v 10.2195 c 0,0.828686 0.665816,1.49454 1.494551,1.49454 h 0.08754 c 0.828738,0 1.501279,-0.665841 1.501279,-1.49454 v -10.2195 c 0,-0.828686 -0.672538,-1.49454 -1.501279,-1.49454 z m -4.874119,2.033115 c -0.828738,0 -1.501279,0.665842 -1.501279,1.494554 v 6.442727 c -2e-6,0.828688 0.672537,1.501277 1.501279,1.501277 h 0.08754 c 0.828739,0 1.49455,-0.672485 1.49455,-1.501277 v -6.442727 c 0,-0.828686 -0.665814,-1.494554 -1.49455,-1.494554 z M 97.0212,28.81053 c -0.792587,0.04038 -1.413763,0.691635 -1.413763,1.494553 v 1.137701 c 0,0.828687 0.665802,1.501277 1.494551,1.501277 h 0.08754 c 0.828738,0 1.494549,-0.672485 1.494549,-1.501277 v -1.137701 c 0,-0.828687 -0.665802,-1.494553 -1.494549,-1.494553 h -0.08754 c -0.02579,0 -0.05524,-0.0013 -0.08077,0 z" />
    <path
       id="path4665"
       style="fill:#ffffff;fill-opacity:1;stroke-width:0.549973"
       class="cls-3"
       d="m 23.821926,19.951191 c -0.03596,7.43e-4 -0.07166,0.01 -0.107743,0.01303 -0.556866,-0.0443 -1.116728,0.231111 -1.285852,0.935774 L 17.951408,39.521271 15.224872,27.11381 c -0.140699,-0.630146 -0.598228,-0.912584 -1.090671,-0.935774 -0.491924,-0.122459 -1.026576,0.03257 -1.332986,0.626108 L 8.7955628,34.559651 7.4221908,31.375312 C 7.1546038,30.754547 6.6331078,30.591832 6.1431407,30.722238 H 2.5750691 c -1.69941003,0 -1.69941003,2.63903 0,2.63903 H 5.422789 l 2.1341078,4.941438 c 0.251563,0.581554 0.734888,0.756645 1.19828,0.666494 0.415451,0.02084 0.8290769,-0.172877 1.0838979,-0.666494 l 3.6084663,-7.001495 3.177605,14.454046 c 0.152292,0.681735 0.675872,0.956749 1.211828,0.935774 0.569958,0.06124 1.153074,-0.211569 1.32625,-0.935774 l 4.443255,-18.473182 1.043486,5.109743 c 0.122981,0.58546 0.520688,0.878843 0.969436,0.935774 0.0023,2.85e-4 0.0045,-2.88e-4 0.007,0 0.09314,0.01954 0.189643,0.03387 0.296222,0.03387 h 4.625008 c 1.699412,0 1.70491,-2.63903 0,-2.63903 H 26.999757 L 24.99356,20.900148 c -0.140777,-0.67027 -0.645961,-0.960135 -1.171404,-0.949191 z" />
  </g>
</svg>
