<?xml version="1.0" encoding="UTF-8" standalone="no"?>
<!-- Created with Inkscape (http://www.inkscape.org/) -->

<svg
   width="100mm"
   height="100mm"
   viewBox="0 0 100 100"
   version="1.1"
   id="svg5"
   inkscape:version="1.1.2 (0a00cf5339, 2022-02-04, custom)"
   sodipodi:docname="icon-breeze-noise-reduction-off.svg"
   xmlns:inkscape="http://www.inkscape.org/namespaces/inkscape"
   xmlns:sodipodi="http://sodipodi.sourceforge.net/DTD/sodipodi-0.dtd"
   xmlns="http://www.w3.org/2000/svg"
   xmlns:svg="http://www.w3.org/2000/svg">
  <sodipodi:namedview
     id="namedview7"
     pagecolor="#ffffff"
     bordercolor="#666666"
     borderopacity="1.0"
     inkscape:pageshadow="2"
     inkscape:pageopacity="0.0"
     inkscape:pagecheckerboard="0"
     inkscape:document-units="mm"
     showgrid="false"
     inkscape:zoom="1.2837595"
     inkscape:cx="542.93659"
     inkscape:cy="213.8251"
     inkscape:window-width="2560"
     inkscape:window-height="1008"
     inkscape:window-x="1680"
     inkscape:window-y="0"
     inkscape:window-maximized="1"
     inkscape:current-layer="layer1" />
  <defs
     id="defs2">
    <style
       id="style563">.cls-1{fill:#002a44;}.cls-2{fill:none;stroke:#2991c9;stroke-miterlimit:10;stroke-width:5px;}.cls-3{fill:#2991c9;}.cls-4{fill:#fff;}</style>
  </defs>
  <g
     inkscape:label="Camada 1"
     inkscape:groupmode="layer"
     id="layer1">
    <g
       id="g4621"
       transform="matrix(0.63223875,0,0,0.63223875,32.84335,71.738705)">
      <path
         class="cls-1"
         d="m 3.2909076,-32.222789 v 6.19955 A 26.085072,26.085072 0 0 0 29.289012,-0.02510947 v 0 A 26.085072,26.085072 0 0 0 55.287127,-26.023239 v -6.19955 z"
         id="path2765"
         style="opacity:0.5;fill:#ffffff;stroke-width:0.869502" />
      <path
         id="path2767"
         style="opacity:0.5;fill:#ffffff;stroke-width:0.869503"
         class="cls-1"
         d="M 29.289102,-101.35712 A 26.085068,26.085068 0 0 0 3.2906976,-75.367499 v 38.66689 H 55.286977 v -38.66689 A 26.085068,26.085068 0 0 0 29.289102,-101.35712 Z m -6.077667,12.799211 a 3.6866901,3.6866901 0 0 1 3.686597,3.6866 3.6866901,3.6866901 0 0 1 -3.686597,3.6866 3.6866901,3.6866901 0 0 1 -3.687107,-3.6866 3.6866901,3.6866901 0 0 1 3.687107,-3.6866 z m 12.155324,0 a 3.6866901,3.6866901 0 0 1 3.686597,3.6866 3.6866901,3.6866901 0 0 1 -3.686597,3.6866 3.6866901,3.6866901 0 0 1 -3.6866,-3.6866 3.6866901,3.6866901 0 0 1 3.6866,-3.6866 z m -24.311168,11.39931 a 3.6866901,3.6866901 0 0 1 3.6866,3.6866 3.6866901,3.6866901 0 0 1 -3.6866,3.68659 3.6866901,3.6866901 0 0 1 -3.6865867,-3.68659 3.6866901,3.6866901 0 0 1 3.6865867,-3.6866 z m 12.155844,0 a 3.6866901,3.6866901 0 0 1 3.686597,3.6866 3.6866901,3.6866901 0 0 1 -3.686597,3.68659 3.6866901,3.6866901 0 0 1 -3.687107,-3.68659 3.6866901,3.6866901 0 0 1 3.687107,-3.6866 z m 12.155324,0 a 3.6866901,3.6866901 0 0 1 3.686597,3.6866 3.6866901,3.6866901 0 0 1 -3.686597,3.68659 3.6866901,3.6866901 0 0 1 -3.6866,-3.68659 3.6866901,3.6866901 0 0 1 3.6866,-3.6866 z m 12.155841,0 a 3.6866901,3.6866901 0 0 1 3.6866,3.6866 3.6866901,3.6866901 0 0 1 -3.6866,3.68659 3.6866901,3.6866901 0 0 1 -3.686597,-3.68659 3.6866901,3.6866901 0 0 1 3.686597,-3.6866 z m -36.467009,11.86853 a 3.6866901,3.6866901 0 0 1 3.6866,3.68659 3.6866901,3.6866901 0 0 1 -3.6866,3.68712 3.6866901,3.6866901 0 0 1 -3.6865867,-3.68712 3.6866901,3.6866901 0 0 1 3.6865867,-3.68659 z m 12.155844,0 a 3.6866901,3.6866901 0 0 1 3.686597,3.68659 3.6866901,3.6866901 0 0 1 -3.686597,3.68712 3.6866901,3.6866901 0 0 1 -3.687107,-3.68712 3.6866901,3.6866901 0 0 1 3.687107,-3.68659 z m 12.155324,0 a 3.6866901,3.6866901 0 0 1 3.686597,3.68659 3.6866901,3.6866901 0 0 1 -3.686597,3.68712 3.6866901,3.6866901 0 0 1 -3.6866,-3.68712 3.6866901,3.6866901 0 0 1 3.6866,-3.68659 z m 12.155841,0 a 3.6866901,3.6866901 0 0 1 3.6866,3.68659 3.6866901,3.6866901 0 0 1 -3.6866,3.68712 3.6866901,3.6866901 0 0 1 -3.686597,-3.68712 3.6866901,3.6866901 0 0 1 3.686597,-3.68659 z m -36.467009,12.31242 a 3.6866901,3.6866901 0 0 1 3.6866,3.6866 3.6866901,3.6866901 0 0 1 -3.6866,3.68659 3.6866901,3.6866901 0 0 1 -3.6865867,-3.68659 3.6866901,3.6866901 0 0 1 3.6865867,-3.6866 z m 12.155844,0 a 3.6866901,3.6866901 0 0 1 3.686597,3.6866 3.6866901,3.6866901 0 0 1 -3.686597,3.68659 3.6866901,3.6866901 0 0 1 -3.687107,-3.68659 3.6866901,3.6866901 0 0 1 3.687107,-3.6866 z m 12.155324,0 a 3.6866901,3.6866901 0 0 1 3.686597,3.6866 3.6866901,3.6866901 0 0 1 -3.686597,3.68659 3.6866901,3.6866901 0 0 1 -3.6866,-3.68659 3.6866901,3.6866901 0 0 1 3.6866,-3.6866 z m 12.155841,0 a 3.6866901,3.6866901 0 0 1 3.6866,3.6866 3.6866901,3.6866901 0 0 1 -3.6866,3.68659 3.6866901,3.6866901 0 0 1 -3.686597,-3.68659 3.6866901,3.6866901 0 0 1 3.686597,-3.6866 z" />
      <path
         class="cls-2"
         d="m -3.4477291,-32.292349 v 6.70386 A 32.284624,32.284624 0 0 0 28.723842,6.5831005 v 0 A 32.284624,32.284624 0 0 0 60.895414,-25.588489 v -6.70386"
         id="path2769"
         style="opacity:0.5;fill:none;fill-opacity:1;stroke:#ffffff;stroke-opacity:1" />
      <path
         id="rect2771"
         style="opacity:0.5;fill:#ffffff;stroke-width:3.28631"
         class="cls-3"
         d="M 91.144531,33.103042 V 89.808594 C 39.82794,92.426165 0.640625,106.34347 0.640625,123.14258 h 90.503906 v 0.0312 h 35.033199 v -0.0312 h 90.50391 c 0,-16.79911 -39.18731,-30.716415 -90.50391,-33.333986 v -56.72272 c -13.11232,1.737108 -24.03466,1.539947 -35.033199,0.01717 z"
         transform="scale(0.26458333)"
         sodipodi:nodetypes="ccccccccccc" />
    </g>
  </g>
</svg>
