<?xml version="1.0" encoding="UTF-8" standalone="no"?>
<!-- Created with Inkscape (http://www.inkscape.org/) -->

<svg
   width="100mm"
   height="100mm"
   viewBox="0 0 100 100"
   version="1.1"
   id="svg5"
   inkscape:version="1.1.2 (0a00cf5339, 2022-02-04, custom)"
   sodipodi:docname="icon-breeze-noise-reduction-on.svg"
   xmlns:inkscape="http://www.inkscape.org/namespaces/inkscape"
   xmlns:sodipodi="http://sodipodi.sourceforge.net/DTD/sodipodi-0.dtd"
   xmlns="http://www.w3.org/2000/svg"
   xmlns:svg="http://www.w3.org/2000/svg">
  <sodipodi:namedview
     id="namedview7"
     pagecolor="#ffffff"
     bordercolor="#666666"
     borderopacity="1.0"
     inkscape:pageshadow="2"
     inkscape:pageopacity="0.0"
     inkscape:pagecheckerboard="0"
     inkscape:document-units="mm"
     showgrid="false"
     inkscape:zoom="1.2837595"
     inkscape:cx="81.012059"
     inkscape:cy="213.8251"
     inkscape:window-width="2560"
     inkscape:window-height="1008"
     inkscape:window-x="1680"
     inkscape:window-y="0"
     inkscape:window-maximized="1"
     inkscape:current-layer="layer1" />
  <defs
     id="defs2">
    <style
       id="style563">.cls-1{fill:#002a44;}.cls-2{fill:none;stroke:#2991c9;stroke-miterlimit:10;stroke-width:5px;}.cls-3{fill:#2991c9;}.cls-4{fill:#fff;}</style>
  </defs>
  <g
     inkscape:label="Camada 1"
     inkscape:groupmode="layer"
     id="layer1">
    <g
       id="g4641"
       transform="matrix(0.63223875,0,0,0.63223875,-77.633946,71.738643)">
      <path
         class="cls-1"
         d="m 177.91596,-32.222784 v 6.199552 a 26.085072,26.085072 0 0 0 25.99812,25.99812226 v 0 A 26.085072,26.085072 0 0 0 229.91221,-26.023232 v -6.199552 z"
         id="path567"
         style="fill:#ffffff;stroke-width:0.869502" />
      <path
         id="path569"
         style="fill:#ffffff;stroke-width:3.28631"
         class="cls-1"
         d="m 770.69922,-383.08203 a 98.589236,98.589236 0 0 0 -98.26172,98.22851 v 146.14258 h 196.52148 v -146.14258 a 98.589236,98.589236 0 0 0 -98.25976,-98.22851 z m -22.9707,48.375 a 13.933947,13.933947 0 0 1 13.93359,13.93359 13.933947,13.933947 0 0 1 -13.93359,13.9336 13.933947,13.933947 0 0 1 -13.93555,-13.9336 13.933947,13.933947 0 0 1 13.93555,-13.93359 z m 45.9414,0 a 13.933947,13.933947 0 0 1 13.9336,13.93359 13.933947,13.933947 0 0 1 -13.9336,13.9336 13.933947,13.933947 0 0 1 -13.93359,-13.9336 13.933947,13.933947 0 0 1 13.93359,-13.93359 z m -91.88476,43.08398 a 13.933947,13.933947 0 0 1 13.93359,13.9336 13.933947,13.933947 0 0 1 -13.93359,13.93359 13.933947,13.933947 0 0 1 -13.9336,-13.93359 13.933947,13.933947 0 0 1 13.9336,-13.9336 z m 45.94336,0 a 13.933947,13.933947 0 0 1 13.93359,13.9336 13.933947,13.933947 0 0 1 -13.93359,13.93359 13.933947,13.933947 0 0 1 -13.93555,-13.93359 13.933947,13.933947 0 0 1 13.93555,-13.9336 z m 45.9414,0 a 13.933947,13.933947 0 0 1 13.9336,13.9336 13.933947,13.933947 0 0 1 -13.9336,13.93359 13.933947,13.933947 0 0 1 -13.93359,-13.93359 13.933947,13.933947 0 0 1 13.93359,-13.9336 z m 45.94336,0 a 13.933947,13.933947 0 0 1 13.9336,13.9336 13.933947,13.933947 0 0 1 -13.9336,13.93359 13.933947,13.933947 0 0 1 -13.93359,-13.93359 13.933947,13.933947 0 0 1 13.93359,-13.9336 z m -137.82812,44.85743 a 13.933947,13.933947 0 0 1 13.93359,13.93359 13.933947,13.933947 0 0 1 -13.93359,13.93555 13.933947,13.933947 0 0 1 -13.9336,-13.93555 13.933947,13.933947 0 0 1 13.9336,-13.93359 z m 45.94336,0 a 13.933947,13.933947 0 0 1 13.93359,13.93359 13.933947,13.933947 0 0 1 -13.93359,13.93555 13.933947,13.933947 0 0 1 -13.93555,-13.93555 13.933947,13.933947 0 0 1 13.93555,-13.93359 z m 45.9414,0 a 13.933947,13.933947 0 0 1 13.9336,13.93359 13.933947,13.933947 0 0 1 -13.9336,13.93555 13.933947,13.933947 0 0 1 -13.93359,-13.93555 13.933947,13.933947 0 0 1 13.93359,-13.93359 z m 45.94336,0 a 13.933947,13.933947 0 0 1 13.9336,13.93359 13.933947,13.933947 0 0 1 -13.9336,13.93555 13.933947,13.933947 0 0 1 -13.93359,-13.93555 13.933947,13.933947 0 0 1 13.93359,-13.93359 z m -137.82812,46.53515 a 13.933947,13.933947 0 0 1 13.93359,13.93359 13.933947,13.933947 0 0 1 -13.93359,13.9336 13.933947,13.933947 0 0 1 -13.9336,-13.9336 13.933947,13.933947 0 0 1 13.9336,-13.93359 z m 45.94336,0 a 13.933947,13.933947 0 0 1 13.93359,13.93359 13.933947,13.933947 0 0 1 -13.93359,13.9336 13.933947,13.933947 0 0 1 -13.93555,-13.9336 13.933947,13.933947 0 0 1 13.93555,-13.93359 z m 45.9414,0 a 13.933947,13.933947 0 0 1 13.9336,13.93359 13.933947,13.933947 0 0 1 -13.9336,13.9336 13.933947,13.933947 0 0 1 -13.93359,-13.9336 13.933947,13.933947 0 0 1 13.93359,-13.93359 z m 45.94336,0 a 13.933947,13.933947 0 0 1 13.9336,13.93359 13.933947,13.933947 0 0 1 -13.9336,13.9336 13.933947,13.933947 0 0 1 -13.93359,-13.9336 13.933947,13.933947 0 0 1 13.93359,-13.93359 z"
         transform="scale(0.26458333)" />
      <path
         class="cls-2"
         d="m 171.17732,-32.292344 v 6.703863 a 32.284624,32.284624 0 0 0 32.17159,32.1715896 v 0 A 32.284624,32.284624 0 0 0 235.5205,-25.588481 v -6.703863"
         id="path571"
         style="fill:none;fill-opacity:1;stroke:#ffffff;stroke-opacity:1" />
      <rect
         class="cls-3"
         x="198.74055"
         y="8.4438429"
         width="9.2688951"
         height="24.146082"
         id="rect601"
         style="fill:#ffffff;stroke-width:0.869502" />
      <path
         class="cls-3"
         d="m 231.95554,32.581231 h -57.16109 c 0,-4.938774 12.79907,-8.938485 28.58054,-8.938485 15.78147,0 28.58055,3.999711 28.58055,8.938485 z"
         id="path603"
         style="fill:#ffffff;stroke-width:0.869502" />
      <rect
         class="cls-3"
         x="243.11127"
         y="-92.479301"
         width="4.8692136"
         height="56.039429"
         rx="2.3650465"
         id="rect609"
         style="fill:#ffffff;stroke-width:0.869502" />
      <rect
         class="cls-3"
         x="250.83244"
         y="-82.653923"
         width="4.8692136"
         height="37.206009"
         rx="2.3650465"
         id="rect611"
         style="fill:#ffffff;stroke-width:0.869502" />
      <rect
         class="cls-3"
         x="258.55362"
         y="-71.48082"
         width="4.8692136"
         height="14.920661"
         rx="2.3650465"
         id="rect613"
         style="fill:#ffffff;stroke-width:0.869502" />
      <rect
         class="cls-3"
         x="266.26611"
         y="-74.689278"
         width="4.8692136"
         height="20.876753"
         rx="2.3650465"
         id="rect615"
         style="fill:#ffffff;stroke-width:0.869502" />
      <rect
         class="cls-3"
         x="273.98727"
         y="-67.698479"
         width="4.8692136"
         height="6.5299635"
         rx="2.3650465"
         id="rect617"
         style="fill:#ffffff;stroke-width:0.869502" />
      <rect
         class="cls-3"
         x="235.39008"
         y="-74.897964"
         width="4.8692136"
         height="20.876753"
         rx="2.3650465"
         id="rect619"
         style="fill:#ffffff;stroke-width:0.869502" />
      <path
         class="cls-3"
         d="m 126.91095,-60.507697 h 5.86045 c 2.67806,0 2.68676,-4.173612 0,-4.173612 h -5.86045 c -2.68676,0 -2.68676,4.173612 0,4.173612 z"
         id="path621"
         style="fill:#ffffff;stroke-width:0.869502" />
      <path
         class="cls-3"
         d="m 138.39708,-54.803762 -3.82581,-8.842839 c -1.0608,-2.460692 -4.66054,-0.339106 -3.60844,2.104196 l 3.82581,8.851534 c 1.0608,2.451997 4.66054,0.330411 3.60844,-2.112891 z"
         id="path623"
         style="fill:#ffffff;stroke-width:0.869502" />
      <path
         class="cls-3"
         d="m 143.075,-70.872166 -8.28636,16.068404 c -1.226,2.391132 2.37374,4.504023 3.60844,2.112891 l 8.27766,-16.077099 c 1.23469,-2.382437 -2.36505,-4.495328 -3.59974,-2.104196 z"
         id="path625"
         style="fill:#ffffff;stroke-width:0.869502" />
      <path
         class="cls-3"
         d="m 153.13514,-42.013381 -6.22563,-28.363169 c -0.58257,-2.608507 -4.60837,-1.512934 -4.0258,1.112963 l 6.24303,28.354474 c 0.58256,2.608507 4.59967,1.512934 4.02579,-1.104268 z"
         id="path627"
         style="fill:#ffffff;stroke-width:0.869502" />
      <path
         class="cls-3"
         d="m 158.29129,-80.210622 -9.18194,38.197241 c -0.62604,2.608507 3.39975,3.72147 4.02579,1.104268 l 9.18195,-38.188546 c 0.62604,-2.608507 -3.39975,-3.72147 -4.0258,-1.112963 z"
         id="path629"
         style="fill:#ffffff;stroke-width:0.869502" />
      <path
         class="cls-3"
         d="m 165.82988,-63.150985 -3.47801,-17.059637 c -0.54779,-2.608507 -4.57358,-1.512934 -4.0258,1.112963 l 3.47801,17.059637 c 0.54779,2.608508 4.56489,1.512935 4.0258,-1.112963 z"
         id="path631"
         style="fill:#ffffff;stroke-width:0.869502" />
      <path
         class="cls-3"
         d="m 171.13384,-64.681309 h -7.31251 c -2.68676,0 -2.69546,4.173612 0,4.173612 h 7.31251 c 2.68677,0 2.69546,-4.173612 0,-4.173612 z"
         id="path633"
         style="fill:#ffffff;stroke-width:0.869502" />
    </g>
  </g>
</svg>
