<?xml version="1.0" encoding="UTF-8" standalone="no"?>
<!-- Created with Inkscape (http://www.inkscape.org/) -->

<svg
   width="100mm"
   height="100mm"
   viewBox="0 0 100 100"
   version="1.1"
   id="svg5"
   inkscape:version="1.1.2 (0a00cf5339, 2022-02-04, custom)"
   sodipodi:docname="big-noise-reduction-of.svg"
   xmlns:inkscape="http://www.inkscape.org/namespaces/inkscape"
   xmlns:sodipodi="http://sodipodi.sourceforge.net/DTD/sodipodi-0.dtd"
   xmlns="http://www.w3.org/2000/svg"
   xmlns:svg="http://www.w3.org/2000/svg">
  <sodipodi:namedview
     id="namedview7"
     pagecolor="#ffffff"
     bordercolor="#666666"
     borderopacity="1.0"
     inkscape:pageshadow="2"
     inkscape:pageopacity="0.0"
     inkscape:pagecheckerboard="0"
     inkscape:document-units="mm"
     showgrid="false"
     inkscape:zoom="1.2837595"
     inkscape:cx="181.10869"
     inkscape:cy="277.69999"
     inkscape:window-width="1920"
     inkscape:window-height="1008"
     inkscape:window-x="4240"
     inkscape:window-y="0"
     inkscape:window-maximized="1"
     inkscape:current-layer="layer1" />
  <defs
     id="defs2">
    <style
       id="style563">.cls-1{fill:#002a44;}.cls-2{fill:none;stroke:#2991c9;stroke-miterlimit:10;stroke-width:5px;}.cls-3{fill:#2991c9;}.cls-4{fill:#fff;}</style>
  </defs>
  <g
     inkscape:label="Camada 1"
     inkscape:groupmode="layer"
     id="layer1">
    <path
       class="cls-1"
       d="m 34.837953,51.250242 v 3.921299 a 16.499123,16.499123 0 0 0 16.444128,16.444123 v 0 a 16.499123,16.499123 0 0 0 16.44413,-16.444123 v -3.921299 z"
       id="path4643"
       style="fill:#ffffff;fill-opacity:1;stroke-width:0.549973;opacity:0.5" />
    <path
       id="path4645"
       style="fill:#ffffff;fill-opacity:1;stroke-width:0.549973;opacity:0.5"
       class="cls-1"
       d="M 51.282135,7.5219359 A 16.499121,16.499121 0 0 0 34.837821,23.960688 V 48.417974 H 67.726117 V 23.960688 A 16.499121,16.499121 0 0 0 51.282135,7.5219359 Z m -3.844198,8.0956581 a 2.3318762,2.3318762 0 0 1 2.331818,2.331827 2.3318762,2.3318762 0 0 1 -2.331818,2.331812 2.3318762,2.3318762 0 0 1 -2.332141,-2.331812 2.3318762,2.3318762 0 0 1 2.332141,-2.331827 z m 7.688394,0 a 2.3318762,2.3318762 0 0 1 2.331817,2.331827 2.3318762,2.3318762 0 0 1 -2.331817,2.331812 2.3318762,2.3318762 0 0 1 -2.331821,-2.331812 2.3318762,2.3318762 0 0 1 2.331821,-2.331827 z m -15.377119,7.210198 a 2.3318762,2.3318762 0 0 1 2.331821,2.331826 2.3318762,2.3318762 0 0 1 -2.331821,2.331813 2.3318762,2.3318762 0 0 1 -2.33181,-2.331813 2.3318762,2.3318762 0 0 1 2.33181,-2.331826 z m 7.688725,0 a 2.3318762,2.3318762 0 0 1 2.331818,2.331826 2.3318762,2.3318762 0 0 1 -2.331818,2.331813 2.3318762,2.3318762 0 0 1 -2.332141,-2.331813 2.3318762,2.3318762 0 0 1 2.332141,-2.331826 z m 7.688394,0 a 2.3318762,2.3318762 0 0 1 2.331817,2.331826 2.3318762,2.3318762 0 0 1 -2.331817,2.331813 2.3318762,2.3318762 0 0 1 -2.331821,-2.331813 2.3318762,2.3318762 0 0 1 2.331821,-2.331826 z m 7.688721,0 a 2.3318762,2.3318762 0 0 1 2.33182,2.331826 2.3318762,2.3318762 0 0 1 -2.33182,2.331813 2.3318762,2.3318762 0 0 1 -2.331821,-2.331813 2.3318762,2.3318762 0 0 1 2.331821,-2.331826 z m -23.06584,7.506994 a 2.3318762,2.3318762 0 0 1 2.331821,2.331813 2.3318762,2.3318762 0 0 1 -2.331821,2.332151 2.3318762,2.3318762 0 0 1 -2.33181,-2.332151 2.3318762,2.3318762 0 0 1 2.33181,-2.331813 z m 7.688725,0 a 2.3318762,2.3318762 0 0 1 2.331818,2.331813 2.3318762,2.3318762 0 0 1 -2.331818,2.332151 2.3318762,2.3318762 0 0 1 -2.332141,-2.332151 2.3318762,2.3318762 0 0 1 2.332141,-2.331813 z m 7.688394,0 a 2.3318762,2.3318762 0 0 1 2.331817,2.331813 2.3318762,2.3318762 0 0 1 -2.331817,2.332151 2.3318762,2.3318762 0 0 1 -2.331821,-2.332151 2.3318762,2.3318762 0 0 1 2.331821,-2.331813 z m 7.688721,0 a 2.3318762,2.3318762 0 0 1 2.33182,2.331813 2.3318762,2.3318762 0 0 1 -2.33182,2.332151 2.3318762,2.3318762 0 0 1 -2.331821,-2.332151 2.3318762,2.3318762 0 0 1 2.331821,-2.331813 z m -23.06584,7.787764 a 2.3318762,2.3318762 0 0 1 2.331821,2.331812 2.3318762,2.3318762 0 0 1 -2.331821,2.331814 2.3318762,2.3318762 0 0 1 -2.33181,-2.331814 2.3318762,2.3318762 0 0 1 2.33181,-2.331812 z m 7.688725,0 a 2.3318762,2.3318762 0 0 1 2.331818,2.331812 2.3318762,2.3318762 0 0 1 -2.331818,2.331814 2.3318762,2.3318762 0 0 1 -2.332141,-2.331814 2.3318762,2.3318762 0 0 1 2.332141,-2.331812 z m 7.688394,0 a 2.3318762,2.3318762 0 0 1 2.331817,2.331812 2.3318762,2.3318762 0 0 1 -2.331817,2.331814 2.3318762,2.3318762 0 0 1 -2.331821,-2.331814 2.3318762,2.3318762 0 0 1 2.331821,-2.331812 z m 7.688721,0 a 2.3318762,2.3318762 0 0 1 2.33182,2.331812 2.3318762,2.3318762 0 0 1 -2.33182,2.331814 2.3318762,2.3318762 0 0 1 -2.331821,-2.331814 2.3318762,2.3318762 0 0 1 2.331821,-2.331812 z" />
    <path
       class="cls-2"
       d="m 30.575682,51.206248 v 4.240266 a 20.420416,20.420416 0 0 0 20.348922,20.348922 v 0 A 20.420416,20.420416 0 0 0 71.273522,55.446514 v -4.240266"
       id="path4647"
       style="fill:none;fill-opacity:1;stroke:#ffffff;stroke-width:3.559;stroke-miterlimit:10;stroke-dasharray:none;stroke-opacity:1;opacity:0.5" />
    <path
       id="rect4649"
       style="fill:#ffffff;fill-opacity:1;stroke-width:0.434015;opacity:0.5"
       class="cls-3"
       d="m 47.990547,77.296116 v 9.371234 c -8.575834,0.441243 -15.127269,2.765602 -15.127269,5.574262 h 36.158677 c 0,-2.810408 -6.563768,-5.13508 -15.147462,-5.574262 v -9.371234 c -2.141434,0.288692 -4.06853,0.233848 -5.883946,0 z"
       sodipodi:nodetypes="ccccccc" />
  </g>
</svg>
