<?xml version="1.0" encoding="UTF-8" standalone="no"?>
<!-- Created with Inkscape (http://www.inkscape.org/) -->

<svg
   width="100mm"
   height="100mm"
   viewBox="0 0 100 100"
   version="1.1"
   id="svg5"
   inkscape:version="1.1.2 (0a00cf5339, 2022-02-04, custom)"
   sodipodi:docname="icon-breeze-dark-noise-reduction-on.svg"
   xmlns:inkscape="http://www.inkscape.org/namespaces/inkscape"
   xmlns:sodipodi="http://sodipodi.sourceforge.net/DTD/sodipodi-0.dtd"
   xmlns="http://www.w3.org/2000/svg"
   xmlns:svg="http://www.w3.org/2000/svg">
  <sodipodi:namedview
     id="namedview7"
     pagecolor="#ffffff"
     bordercolor="#666666"
     borderopacity="1.0"
     inkscape:pageshadow="2"
     inkscape:pageopacity="0.0"
     inkscape:pagecheckerboard="0"
     inkscape:document-units="mm"
     showgrid="false"
     inkscape:zoom="1.2837595"
     inkscape:cx="397.27067"
     inkscape:cy="213.8251"
     inkscape:window-width="2560"
     inkscape:window-height="1008"
     inkscape:window-x="1680"
     inkscape:window-y="0"
     inkscape:window-maximized="1"
     inkscape:current-layer="layer1" />
  <defs
     id="defs2">
    <style
       id="style563">.cls-1{fill:#002a44;}.cls-2{fill:none;stroke:#2991c9;stroke-miterlimit:10;stroke-width:5px;}.cls-3{fill:#2991c9;}.cls-4{fill:#fff;}</style>
  </defs>
  <g
     inkscape:label="Camada 1"
     inkscape:groupmode="layer"
     id="layer1">
    <g
       id="g5451"
       transform="matrix(0.63223875,0,0,0.63223875,-77.633946,-25.203455)">
      <path
         class="cls-1"
         d="m 177.91596,121.10869 v 6.19955 a 26.085072,26.085072 0 0 0 25.99812,25.99812 v 0 a 26.085072,26.085072 0 0 0 25.99813,-25.99812 v -6.19955 z"
         id="path4643"
         style="fill:#000000;stroke-width:0.869502" />
      <path
         id="path4645"
         style="fill:#000000;stroke-width:0.869503"
         class="cls-1"
         d="m 203.91417,51.974351 a 26.085068,26.085068 0 0 0 -25.99842,25.989626 v 38.666893 h 51.99631 V 77.963977 A 26.085068,26.085068 0 0 0 203.91417,51.974351 Z m -6.07767,12.799218 a 3.6866901,3.6866901 0 0 1 3.6866,3.686596 3.6866901,3.6866901 0 0 1 -3.6866,3.686598 3.6866901,3.6866901 0 0 1 -3.68711,-3.686598 3.6866901,3.6866901 0 0 1 3.68711,-3.686596 z m 12.15533,0 a 3.6866901,3.6866901 0 0 1 3.6866,3.686596 3.6866901,3.6866901 0 0 1 -3.6866,3.686598 3.6866901,3.6866901 0 0 1 -3.6866,-3.686598 3.6866901,3.6866901 0 0 1 3.6866,-3.686596 z m -24.31118,11.399303 a 3.6866901,3.6866901 0 0 1 3.6866,3.686599 3.6866901,3.6866901 0 0 1 -3.6866,3.686595 3.6866901,3.6866901 0 0 1 -3.68659,-3.686595 3.6866901,3.6866901 0 0 1 3.68659,-3.686599 z m 12.15585,0 a 3.6866901,3.6866901 0 0 1 3.6866,3.686599 3.6866901,3.6866901 0 0 1 -3.6866,3.686595 3.6866901,3.6866901 0 0 1 -3.68711,-3.686595 3.6866901,3.6866901 0 0 1 3.68711,-3.686599 z m 12.15533,0 a 3.6866901,3.6866901 0 0 1 3.6866,3.686599 3.6866901,3.6866901 0 0 1 -3.6866,3.686595 3.6866901,3.6866901 0 0 1 -3.6866,-3.686595 3.6866901,3.6866901 0 0 1 3.6866,-3.686599 z m 12.15585,0 a 3.6866901,3.6866901 0 0 1 3.6866,3.686599 3.6866901,3.6866901 0 0 1 -3.6866,3.686595 3.6866901,3.6866901 0 0 1 -3.6866,-3.686595 3.6866901,3.6866901 0 0 1 3.6866,-3.686599 z m -36.46703,11.868529 a 3.6866901,3.6866901 0 0 1 3.6866,3.686595 3.6866901,3.6866901 0 0 1 -3.6866,3.687114 3.6866901,3.6866901 0 0 1 -3.68659,-3.687114 3.6866901,3.6866901 0 0 1 3.68659,-3.686595 z m 12.15585,0 a 3.6866901,3.6866901 0 0 1 3.6866,3.686595 3.6866901,3.6866901 0 0 1 -3.6866,3.687114 3.6866901,3.6866901 0 0 1 -3.68711,-3.687114 3.6866901,3.6866901 0 0 1 3.68711,-3.686595 z m 12.15533,0 a 3.6866901,3.6866901 0 0 1 3.6866,3.686595 3.6866901,3.6866901 0 0 1 -3.6866,3.687114 3.6866901,3.6866901 0 0 1 -3.6866,-3.687114 3.6866901,3.6866901 0 0 1 3.6866,-3.686595 z m 12.15585,0 a 3.6866901,3.6866901 0 0 1 3.6866,3.686595 3.6866901,3.6866901 0 0 1 -3.6866,3.687114 3.6866901,3.6866901 0 0 1 -3.6866,-3.687114 3.6866901,3.6866901 0 0 1 3.6866,-3.686595 z m -36.46703,12.312429 a 3.6866901,3.6866901 0 0 1 3.6866,3.68659 3.6866901,3.6866901 0 0 1 -3.6866,3.6866 3.6866901,3.6866901 0 0 1 -3.68659,-3.6866 3.6866901,3.6866901 0 0 1 3.68659,-3.68659 z m 12.15585,0 a 3.6866901,3.6866901 0 0 1 3.6866,3.68659 3.6866901,3.6866901 0 0 1 -3.6866,3.6866 3.6866901,3.6866901 0 0 1 -3.68711,-3.6866 3.6866901,3.6866901 0 0 1 3.68711,-3.68659 z m 12.15533,0 a 3.6866901,3.6866901 0 0 1 3.6866,3.68659 3.6866901,3.6866901 0 0 1 -3.6866,3.6866 3.6866901,3.6866901 0 0 1 -3.6866,-3.6866 3.6866901,3.6866901 0 0 1 3.6866,-3.68659 z m 12.15585,0 a 3.6866901,3.6866901 0 0 1 3.6866,3.68659 3.6866901,3.6866901 0 0 1 -3.6866,3.6866 3.6866901,3.6866901 0 0 1 -3.6866,-3.6866 3.6866901,3.6866901 0 0 1 3.6866,-3.68659 z" />
      <path
         class="cls-2"
         d="m 171.17732,121.03913 v 6.70386 a 32.284624,32.284624 0 0 0 32.17159,32.17159 v 0 a 32.284624,32.284624 0 0 0 32.17159,-32.17159 v -6.70386"
         id="path4647"
         style="fill:none;fill-opacity:1;stroke:#000000;stroke-opacity:1" />
      <rect
         class="cls-3"
         x="198.74055"
         y="161.77531"
         width="9.2688951"
         height="24.146082"
         id="rect4649"
         style="fill:#000000;stroke-width:0.869502" />
      <path
         class="cls-3"
         d="m 231.95554,185.9127 h -57.16109 c 0,-4.93877 12.79907,-8.93848 28.58054,-8.93848 15.78147,0 28.58055,3.99971 28.58055,8.93848 z"
         id="path4651"
         style="fill:#000000;stroke-width:0.869502" />
      <rect
         class="cls-3"
         x="243.11127"
         y="60.852169"
         width="4.8692136"
         height="56.039429"
         rx="2.3650465"
         id="rect4653"
         style="fill:#000000;stroke-width:0.869502" />
      <rect
         class="cls-3"
         x="250.83244"
         y="70.677544"
         width="4.8692136"
         height="37.206009"
         rx="2.3650465"
         id="rect4655"
         style="fill:#000000;stroke-width:0.869502" />
      <rect
         class="cls-3"
         x="258.55362"
         y="81.850647"
         width="4.8692136"
         height="14.920661"
         rx="2.3650465"
         id="rect4657"
         style="fill:#000000;stroke-width:0.869502" />
      <rect
         class="cls-3"
         x="266.26611"
         y="78.642189"
         width="4.8692136"
         height="20.876753"
         rx="2.3650465"
         id="rect4659"
         style="fill:#000000;stroke-width:0.869502" />
      <rect
         class="cls-3"
         x="273.98727"
         y="85.632988"
         width="4.8692136"
         height="6.5299635"
         rx="2.3650465"
         id="rect4661"
         style="fill:#000000;stroke-width:0.869502" />
      <rect
         class="cls-3"
         x="235.39008"
         y="78.433502"
         width="4.8692136"
         height="20.876753"
         rx="2.3650465"
         id="rect4663"
         style="fill:#000000;stroke-width:0.869502" />
      <path
         class="cls-3"
         d="m 126.91095,92.823773 h 5.86045 c 2.67806,0 2.68676,-4.173612 0,-4.173612 h -5.86045 c -2.68676,0 -2.68676,4.173612 0,4.173612 z"
         id="path4665"
         style="fill:#000000;stroke-width:0.869502" />
      <path
         class="cls-3"
         d="m 138.39708,98.527708 -3.82581,-8.842839 c -1.0608,-2.460692 -4.66054,-0.339106 -3.60844,2.104196 l 3.82581,8.851535 c 1.0608,2.452 4.66054,0.33041 3.60844,-2.112892 z"
         id="path4667"
         style="fill:#000000;stroke-width:0.869502" />
      <path
         class="cls-3"
         d="m 143.075,82.459304 -8.28636,16.068404 c -1.226,2.391132 2.37374,4.504022 3.60844,2.112892 l 8.27766,-16.0771 c 1.23469,-2.382437 -2.36505,-4.495328 -3.59974,-2.104196 z"
         id="path4669"
         style="fill:#000000;stroke-width:0.869502" />
      <path
         class="cls-3"
         d="m 153.13514,111.31809 -6.22563,-28.36317 c -0.58257,-2.608507 -4.60837,-1.512934 -4.0258,1.112963 l 6.24303,28.354477 c 0.58256,2.6085 4.59967,1.51293 4.02579,-1.10427 z"
         id="path4671"
         style="fill:#000000;stroke-width:0.869502" />
      <path
         class="cls-3"
         d="m 158.29129,73.120848 -9.18194,38.197242 c -0.62604,2.60851 3.39975,3.72147 4.02579,1.10427 l 9.18195,-38.188549 c 0.62604,-2.608507 -3.39975,-3.72147 -4.0258,-1.112963 z"
         id="path4673"
         style="fill:#000000;stroke-width:0.869502" />
      <path
         class="cls-3"
         d="m 165.82988,90.180485 -3.47801,-17.059637 c -0.54779,-2.608507 -4.57358,-1.512934 -4.0258,1.112963 l 3.47801,17.059637 c 0.54779,2.608508 4.56489,1.512935 4.0258,-1.112963 z"
         id="path4675"
         style="fill:#000000;stroke-width:0.869502" />
      <path
         class="cls-3"
         d="m 171.13384,88.650161 h -7.31251 c -2.68676,0 -2.69546,4.173612 0,4.173612 h 7.31251 c 2.68677,0 2.69546,-4.173612 0,-4.173612 z"
         id="path4677"
         style="fill:#000000;stroke-width:0.869502" />
    </g>
  </g>
</svg>
