<?xml version="1.0" encoding="UTF-8" standalone="no"?>
<!-- Created with Inkscape (http://www.inkscape.org/) -->

<svg
   width="100mm"
   height="100mm"
   viewBox="0 0 100 100"
   version="1.1"
   id="svg5"
   inkscape:version="1.1.2 (0a00cf5339, 2022-02-04, custom)"
   sodipodi:docname="big-noise-reduction-on.svg"
   xmlns:inkscape="http://www.inkscape.org/namespaces/inkscape"
   xmlns:sodipodi="http://sodipodi.sourceforge.net/DTD/sodipodi-0.dtd"
   xmlns="http://www.w3.org/2000/svg"
   xmlns:svg="http://www.w3.org/2000/svg">
  <sodipodi:namedview
     id="namedview7"
     pagecolor="#ffffff"
     bordercolor="#666666"
     borderopacity="1.0"
     inkscape:pageshadow="2"
     inkscape:pageopacity="0.0"
     inkscape:pagecheckerboard="0"
     inkscape:document-units="mm"
     showgrid="false"
     inkscape:zoom="1.2837595"
     inkscape:cx="125.02342"
     inkscape:cy="214.21458"
     inkscape:window-width="1672"
     inkscape:window-height="835"
     inkscape:window-x="3870"
     inkscape:window-y="75"
     inkscape:window-maximized="0"
     inkscape:current-layer="layer1" />
  <defs
     id="defs2">
    <style
       id="style563">.cls-1{fill:#002a44;}.cls-2{fill:none;stroke:#2991c9;stroke-miterlimit:10;stroke-width:5px;}.cls-3{fill:#2991c9;}.cls-4{fill:#fff;}</style>
  </defs>
  <g
     inkscape:label="Camada 1"
     inkscape:groupmode="layer"
     id="layer1">
    <path
       class="cls-1"
       d="m 34.758548,51.251115 v 3.941753 a 16.58519,16.58519 0 0 0 16.529889,16.529898 v 0 A 16.58519,16.58519 0 0 0 67.818315,55.192868 v -3.941753 z"
       id="path4643-3"
       style="fill:#31363b;fill-opacity:1;stroke-width:0.552841" />
    <path
       id="path4645-6"
       style="fill:#31363b;fill-opacity:1;stroke-width:0.552841"
       class="cls-1"
       d="M 51.288563,7.2947045 A 16.585188,16.585188 0 0 0 34.758421,23.819206 V 48.404072 H 67.818315 V 23.819206 A 16.585188,16.585188 0 0 0 51.288563,7.2947045 Z m -3.864235,8.1378895 a 2.3440402,2.3440402 0 0 1 2.343976,2.343989 2.3440402,2.3440402 0 0 1 -2.343976,2.343976 2.3440402,2.3440402 0 0 1 -2.344368,-2.343976 2.3440402,2.3440402 0 0 1 2.344368,-2.343989 z m 7.728483,0 a 2.3440402,2.3440402 0 0 1 2.343976,2.343989 2.3440402,2.3440402 0 0 1 -2.343976,2.343976 2.3440402,2.3440402 0 0 1 -2.343976,-2.343976 2.3440402,2.3440402 0 0 1 2.343976,-2.343989 z m -15.457358,7.247809 a 2.3440402,2.3440402 0 0 1 2.343976,2.343989 2.3440402,2.3440402 0 0 1 -2.343976,2.343977 2.3440402,2.3440402 0 0 1 -2.343976,-2.343977 2.3440402,2.3440402 0 0 1 2.343976,-2.343989 z m 7.728875,0 a 2.3440402,2.3440402 0 0 1 2.343976,2.343989 2.3440402,2.3440402 0 0 1 -2.343976,2.343977 2.3440402,2.3440402 0 0 1 -2.344368,-2.343977 2.3440402,2.3440402 0 0 1 2.344368,-2.343989 z m 7.728483,0 a 2.3440402,2.3440402 0 0 1 2.343976,2.343989 2.3440402,2.3440402 0 0 1 -2.343976,2.343977 2.3440402,2.3440402 0 0 1 -2.343976,-2.343977 2.3440402,2.3440402 0 0 1 2.343976,-2.343989 z m 7.728736,0 a 2.3440402,2.3440402 0 0 1 2.343976,2.343989 2.3440402,2.3440402 0 0 1 -2.343976,2.343977 2.3440402,2.3440402 0 0 1 -2.343976,-2.343977 2.3440402,2.3440402 0 0 1 2.343976,-2.343989 z m -23.186094,7.546153 a 2.3440402,2.3440402 0 0 1 2.343976,2.343976 2.3440402,2.3440402 0 0 1 -2.343976,2.344316 2.3440402,2.3440402 0 0 1 -2.343976,-2.344316 2.3440402,2.3440402 0 0 1 2.343976,-2.343976 z m 7.728875,0 a 2.3440402,2.3440402 0 0 1 2.343976,2.343976 2.3440402,2.3440402 0 0 1 -2.343976,2.344316 2.3440402,2.3440402 0 0 1 -2.344368,-2.344316 2.3440402,2.3440402 0 0 1 2.344368,-2.343976 z m 7.728483,0 a 2.3440402,2.3440402 0 0 1 2.343976,2.343976 2.3440402,2.3440402 0 0 1 -2.343976,2.344316 2.3440402,2.3440402 0 0 1 -2.343976,-2.344316 2.3440402,2.3440402 0 0 1 2.343976,-2.343976 z m 7.728736,0 a 2.3440402,2.3440402 0 0 1 2.343976,2.343976 2.3440402,2.3440402 0 0 1 -2.343976,2.344316 2.3440402,2.3440402 0 0 1 -2.343976,-2.344316 2.3440402,2.3440402 0 0 1 2.343976,-2.343976 z m -23.186094,7.828387 a 2.3440402,2.3440402 0 0 1 2.343976,2.343977 2.3440402,2.3440402 0 0 1 -2.343976,2.343976 2.3440402,2.3440402 0 0 1 -2.343976,-2.343976 2.3440402,2.3440402 0 0 1 2.343976,-2.343977 z m 7.728875,0 a 2.3440402,2.3440402 0 0 1 2.343976,2.343977 2.3440402,2.3440402 0 0 1 -2.343976,2.343976 2.3440402,2.3440402 0 0 1 -2.344368,-2.343976 2.3440402,2.3440402 0 0 1 2.344368,-2.343977 z m 7.728483,0 a 2.3440402,2.3440402 0 0 1 2.343976,2.343977 2.3440402,2.3440402 0 0 1 -2.343976,2.343976 2.3440402,2.3440402 0 0 1 -2.343976,-2.343976 2.3440402,2.3440402 0 0 1 2.343976,-2.343977 z m 7.728736,0 a 2.3440402,2.3440402 0 0 1 2.343976,2.343977 2.3440402,2.3440402 0 0 1 -2.343976,2.343976 2.3440402,2.3440402 0 0 1 -2.343976,-2.343976 2.3440402,2.3440402 0 0 1 2.343976,-2.343977 z" />
    <path
       class="cls-2"
       d="m 30.474069,51.206891 v 4.262386 A 20.526938,20.526938 0 0 0 50.929091,75.92435 v 0 A 20.526938,20.526938 0 0 0 71.384238,55.469277 v -4.262386"
       id="path4647-7"
       style="fill:none;fill-opacity:1;stroke:#31363b;stroke-width:3.46487;stroke-miterlimit:10;stroke-dasharray:none;stroke-opacity:1" />
    <path
       id="rect4649-5"
       style="fill:#31363b;fill-opacity:1;stroke-width:0.436278"
       class="cls-3"
       d="m 47.979713,77.432854 v 9.420116 c -8.620559,0.443547 -15.20606,2.780033 -15.20606,5.603347 h 36.347284 c 0,-2.825069 -6.598069,-5.161869 -15.226484,-5.603347 v -9.420116 c -2.152653,0.290199 -4.08975,0.235066 -5.91474,0 z"
       sodipodi:nodetypes="ccccccc" />
    <path
       id="rect4653-3"
       style="fill:#31363b;fill-opacity:1;stroke-width:0.552841"
       class="cls-3"
       d="m 77.715425,12.940271 c -0.832871,0 -1.502319,0.669314 -1.502319,1.502337 v 32.625271 c 0,0.833009 0.669184,1.50235 1.502319,1.50235 h 0.09167 c 0.832882,0 1.502456,-0.669314 1.502456,-1.50235 V 14.442608 c 0,-0.833009 -0.669182,-1.502337 -1.502456,-1.502337 z m 4.906256,6.246234 c -0.832871,0 -1.502318,0.669315 -1.502318,1.50235 V 41.33596 c 0,0.83301 0.669183,1.509108 1.502318,1.509108 h 0.09166 c 0.832883,0 1.509139,-0.675994 1.509139,-1.509108 V 20.688855 c 0,-0.83301 -0.675739,-1.50235 -1.509139,-1.50235 z m -9.81932,4.933376 c -0.832872,0 -1.502457,0.669315 -1.502457,1.502351 v 10.266023 c 0,0.833009 0.669183,1.50235 1.502457,1.50235 h 0.09165 c 0.832882,0 1.509138,-0.669314 1.509138,-1.50235 V 25.622232 c 0,-0.833011 -0.675738,-1.502351 -1.509138,-1.502351 z m 19.63196,0.128337 c -0.832872,0 -1.50232,0.669314 -1.50232,1.502337 v 10.272808 c 0,0.833009 0.669184,1.502335 1.50232,1.502335 h 0.09166 c 0.832882,0 1.509138,-0.669314 1.509138,-1.502335 V 25.750555 c 0,-0.83301 -0.675738,-1.502337 -1.509138,-1.502337 z m -4.899576,2.04372 c -0.83287,0 -1.509126,0.669315 -1.509126,1.50235 v 6.476337 c 0,0.833009 0.675726,1.509107 1.509126,1.509107 h 0.09166 c 0.832883,0 1.502331,-0.675994 1.502331,-1.509107 v -6.476337 c 0,-0.833009 -0.669196,-1.50235 -1.502331,-1.50235 z m 9.731458,2.402409 c -0.796219,0.0406 -1.421137,0.695244 -1.421137,1.502351 v 1.143635 c 0,0.833009 0.669183,1.509108 1.50233,1.509108 h 0.09166 c 0.832883,0 1.502331,-0.675994 1.502331,-1.509108 v -1.143635 c 0,-0.83301 -0.669183,-1.502351 -1.502331,-1.502351 h -0.09166 c -0.02623,0 -0.05232,-0.0013 -0.07855,0 z" />
    <path
       id="path4665-5"
       style="fill:#31363b;fill-opacity:1;stroke-width:0.552841"
       class="cls-3"
       d="m 23.685067,19.788797 c -0.03933,7.46e-4 -0.07855,0.01002 -0.104773,0.0131 -0.559179,-0.04452 -1.122282,0.232317 -1.292525,0.940656 L 17.787473,39.460968 15.046705,26.988785 C 14.905271,26.355353 14.445616,26.07144 13.950609,26.04813 13.45559,25.925032 12.918675,26.08087 12.610666,26.677503 l -4.0266232,7.795964 -1.38054,-3.200951 C 6.9350458,30.648512 6.4099178,30.484949 5.9175217,30.616035 H 2.3307691 c -1.70818003,0 -1.70818003,2.652796 0,2.652796 H 5.193329 l 2.1453178,4.967217 c 0.252747,0.584586 0.738589,0.760589 1.204799,0.669968 0.417746,0.02095 0.832871,-0.173778 1.0895519,-0.669968 l 3.6273353,-7.038019 3.194144,14.529445 c 0.153222,0.685291 0.67966,0.961737 1.217888,0.940654 0.57359,0.06155 1.158958,-0.212672 1.333133,-0.940654 l 4.466372,-18.569546 1.048955,5.136397 c 0.117857,0.588514 0.523827,0.883427 0.974316,0.940654 0.0023,2.89e-4 0.0046,-2.87e-4 0.0069,0 0.09165,0.01964 0.189886,0.03406 0.297267,0.03406 h 4.649195 c 1.708317,0 1.713815,-2.652796 0,-2.652796 h -3.566339 l -2.016728,-9.873528 c -0.141422,-0.673767 -0.64954,-0.965144 -1.177289,-0.954143 z" />
  </g>
</svg>
