<?xml version="1.0" encoding="UTF-8" standalone="no"?>
<!-- Created with Inkscape (http://www.inkscape.org/) -->

<svg
   width="100mm"
   height="100mm"
   viewBox="0 0 100 100"
   version="1.1"
   id="svg5"
   inkscape:version="1.1.2 (0a00cf5339, 2022-02-04, custom)"
   sodipodi:docname="big-noise-reduction-o.svg"
   xmlns:inkscape="http://www.inkscape.org/namespaces/inkscape"
   xmlns:sodipodi="http://sodipodi.sourceforge.net/DTD/sodipodi-0.dtd"
   xmlns="http://www.w3.org/2000/svg"
   xmlns:svg="http://www.w3.org/2000/svg">
  <sodipodi:namedview
     id="namedview7"
     pagecolor="#ffffff"
     bordercolor="#666666"
     borderopacity="1.0"
     inkscape:pageshadow="2"
     inkscape:pageopacity="0.0"
     inkscape:pagecheckerboard="0"
     inkscape:document-units="mm"
     showgrid="false"
     inkscape:zoom="1.2837595"
     inkscape:cx="125.02342"
     inkscape:cy="213.8251"
     inkscape:window-width="1920"
     inkscape:window-height="1008"
     inkscape:window-x="4240"
     inkscape:window-y="0"
     inkscape:window-maximized="1"
     inkscape:current-layer="layer1" />
  <defs
     id="defs2">
    <style
       id="style563">.cls-1{fill:#002a44;}.cls-2{fill:none;stroke:#2991c9;stroke-miterlimit:10;stroke-width:5px;}.cls-3{fill:#2991c9;}.cls-4{fill:#fff;}</style>
  </defs>
  <g
     inkscape:label="Camada 1"
     inkscape:groupmode="layer"
     id="layer1">
    <path
       class="cls-1"
       d="m 34.758548,51.251115 v 3.941753 a 16.58519,16.58519 0 0 0 16.529889,16.529898 v 0 A 16.58519,16.58519 0 0 0 67.818315,55.192868 v -3.941753 z"
       id="path4643-3"
       style="fill:#31363b;fill-opacity:1;stroke-width:0.552841;opacity:0.5" />
    <path
       id="path4645-6"
       style="fill:#31363b;fill-opacity:1;stroke-width:0.552841;opacity:0.5"
       class="cls-1"
       d="M 51.288563,7.2947045 A 16.585188,16.585188 0 0 0 34.758421,23.819206 V 48.404072 H 67.818315 V 23.819206 A 16.585188,16.585188 0 0 0 51.288563,7.2947045 Z m -3.864235,8.1378895 a 2.3440402,2.3440402 0 0 1 2.343976,2.343989 2.3440402,2.3440402 0 0 1 -2.343976,2.343976 2.3440402,2.3440402 0 0 1 -2.344368,-2.343976 2.3440402,2.3440402 0 0 1 2.344368,-2.343989 z m 7.728483,0 a 2.3440402,2.3440402 0 0 1 2.343976,2.343989 2.3440402,2.3440402 0 0 1 -2.343976,2.343976 2.3440402,2.3440402 0 0 1 -2.343976,-2.343976 2.3440402,2.3440402 0 0 1 2.343976,-2.343989 z m -15.457358,7.247809 a 2.3440402,2.3440402 0 0 1 2.343976,2.343989 2.3440402,2.3440402 0 0 1 -2.343976,2.343977 2.3440402,2.3440402 0 0 1 -2.343976,-2.343977 2.3440402,2.3440402 0 0 1 2.343976,-2.343989 z m 7.728875,0 a 2.3440402,2.3440402 0 0 1 2.343976,2.343989 2.3440402,2.3440402 0 0 1 -2.343976,2.343977 2.3440402,2.3440402 0 0 1 -2.344368,-2.343977 2.3440402,2.3440402 0 0 1 2.344368,-2.343989 z m 7.728483,0 a 2.3440402,2.3440402 0 0 1 2.343976,2.343989 2.3440402,2.3440402 0 0 1 -2.343976,2.343977 2.3440402,2.3440402 0 0 1 -2.343976,-2.343977 2.3440402,2.3440402 0 0 1 2.343976,-2.343989 z m 7.728736,0 a 2.3440402,2.3440402 0 0 1 2.343976,2.343989 2.3440402,2.3440402 0 0 1 -2.343976,2.343977 2.3440402,2.3440402 0 0 1 -2.343976,-2.343977 2.3440402,2.3440402 0 0 1 2.343976,-2.343989 z m -23.186094,7.546153 a 2.3440402,2.3440402 0 0 1 2.343976,2.343976 2.3440402,2.3440402 0 0 1 -2.343976,2.344316 2.3440402,2.3440402 0 0 1 -2.343976,-2.344316 2.3440402,2.3440402 0 0 1 2.343976,-2.343976 z m 7.728875,0 a 2.3440402,2.3440402 0 0 1 2.343976,2.343976 2.3440402,2.3440402 0 0 1 -2.343976,2.344316 2.3440402,2.3440402 0 0 1 -2.344368,-2.344316 2.3440402,2.3440402 0 0 1 2.344368,-2.343976 z m 7.728483,0 a 2.3440402,2.3440402 0 0 1 2.343976,2.343976 2.3440402,2.3440402 0 0 1 -2.343976,2.344316 2.3440402,2.3440402 0 0 1 -2.343976,-2.344316 2.3440402,2.3440402 0 0 1 2.343976,-2.343976 z m 7.728736,0 a 2.3440402,2.3440402 0 0 1 2.343976,2.343976 2.3440402,2.3440402 0 0 1 -2.343976,2.344316 2.3440402,2.3440402 0 0 1 -2.343976,-2.344316 2.3440402,2.3440402 0 0 1 2.343976,-2.343976 z m -23.186094,7.828387 a 2.3440402,2.3440402 0 0 1 2.343976,2.343977 2.3440402,2.3440402 0 0 1 -2.343976,2.343976 2.3440402,2.3440402 0 0 1 -2.343976,-2.343976 2.3440402,2.3440402 0 0 1 2.343976,-2.343977 z m 7.728875,0 a 2.3440402,2.3440402 0 0 1 2.343976,2.343977 2.3440402,2.3440402 0 0 1 -2.343976,2.343976 2.3440402,2.3440402 0 0 1 -2.344368,-2.343976 2.3440402,2.3440402 0 0 1 2.344368,-2.343977 z m 7.728483,0 a 2.3440402,2.3440402 0 0 1 2.343976,2.343977 2.3440402,2.3440402 0 0 1 -2.343976,2.343976 2.3440402,2.3440402 0 0 1 -2.343976,-2.343976 2.3440402,2.3440402 0 0 1 2.343976,-2.343977 z m 7.728736,0 a 2.3440402,2.3440402 0 0 1 2.343976,2.343977 2.3440402,2.3440402 0 0 1 -2.343976,2.343976 2.3440402,2.3440402 0 0 1 -2.343976,-2.343976 2.3440402,2.3440402 0 0 1 2.343976,-2.343977 z" />
    <path
       class="cls-2"
       d="m 30.474069,51.206891 v 4.262386 A 20.526938,20.526938 0 0 0 50.929091,75.92435 v 0 A 20.526938,20.526938 0 0 0 71.384238,55.469277 v -4.262386"
       id="path4647-7"
       style="fill:none;fill-opacity:1;stroke:#31363b;stroke-width:3.46487;stroke-miterlimit:10;stroke-dasharray:none;stroke-opacity:1;opacity:0.5" />
    <path
       id="rect4649-5"
       style="fill:#31363b;fill-opacity:1;stroke-width:0.436278;opacity:0.5"
       class="cls-3"
       d="m 47.979713,77.432854 v 9.420116 c -8.620559,0.443547 -15.20606,2.780033 -15.20606,5.603347 h 36.347284 c 0,-2.825069 -6.598069,-5.161869 -15.226484,-5.603347 v -9.420116 c -2.152653,0.290199 -4.08975,0.235066 -5.91474,0 z"
       sodipodi:nodetypes="ccccccc" />
  </g>
</svg>
