<?xml version="1.0" encoding="UTF-8" standalone="no"?>
<!-- Created with Inkscape (http://www.inkscape.org/) -->

<svg
   width="100mm"
   height="100mm"
   viewBox="0 0 100 100"
   version="1.1"
   id="svg5"
   inkscape:version="1.1.2 (0a00cf5339, 2022-02-04, custom)"
   sodipodi:docname="icon-breeze-dark-noise-reduction-off.svg"
   xmlns:inkscape="http://www.inkscape.org/namespaces/inkscape"
   xmlns:sodipodi="http://sodipodi.sourceforge.net/DTD/sodipodi-0.dtd"
   xmlns="http://www.w3.org/2000/svg"
   xmlns:svg="http://www.w3.org/2000/svg">
  <sodipodi:namedview
     id="namedview7"
     pagecolor="#ffffff"
     bordercolor="#666666"
     borderopacity="1.0"
     inkscape:pageshadow="2"
     inkscape:pageopacity="0.0"
     inkscape:pagecheckerboard="0"
     inkscape:document-units="mm"
     showgrid="false"
     inkscape:zoom="1.2837595"
     inkscape:cx="144.88695"
     inkscape:cy="213.8251"
     inkscape:window-width="2560"
     inkscape:window-height="1008"
     inkscape:window-x="1680"
     inkscape:window-y="0"
     inkscape:window-maximized="1"
     inkscape:current-layer="layer1" />
  <defs
     id="defs2">
    <style
       id="style563">.cls-1{fill:#002a44;}.cls-2{fill:none;stroke:#2991c9;stroke-miterlimit:10;stroke-width:5px;}.cls-3{fill:#2991c9;}.cls-4{fill:#fff;}</style>
  </defs>
  <g
     inkscape:label="Camada 1"
     inkscape:groupmode="layer"
     id="layer1">
    <g
       id="g5457"
       transform="matrix(0.63223875,0,0,0.63223875,32.84335,-25.203311)">
      <path
         class="cls-1"
         d="m 3.2909076,121.10868 v 6.19955 a 26.085072,26.085072 0 0 0 25.9981044,25.99813 v 0 a 26.085072,26.085072 0 0 0 25.998115,-25.99813 v -6.19955 z"
         id="path4681"
         style="opacity:0.5;fill:#000000;stroke-width:0.869502" />
      <path
         id="path4683"
         style="opacity:0.5;fill:#000000;stroke-width:0.869503"
         class="cls-1"
         d="M 29.289102,51.97435 A 26.085068,26.085068 0 0 0 3.2906976,77.963971 V 116.63086 H 55.286977 V 77.963971 A 26.085068,26.085068 0 0 0 29.289102,51.97435 Z m -6.077667,12.799211 a 3.6866901,3.6866901 0 0 1 3.686597,3.6866 3.6866901,3.6866901 0 0 1 -3.686597,3.6866 3.6866901,3.6866901 0 0 1 -3.687107,-3.6866 3.6866901,3.6866901 0 0 1 3.687107,-3.6866 z m 12.155324,0 a 3.6866901,3.6866901 0 0 1 3.686597,3.6866 3.6866901,3.6866901 0 0 1 -3.686597,3.6866 3.6866901,3.6866901 0 0 1 -3.6866,-3.6866 3.6866901,3.6866901 0 0 1 3.6866,-3.6866 z m -24.311168,11.39931 a 3.6866901,3.6866901 0 0 1 3.6866,3.6866 3.6866901,3.6866901 0 0 1 -3.6866,3.68659 3.6866901,3.6866901 0 0 1 -3.6865867,-3.68659 3.6866901,3.6866901 0 0 1 3.6865867,-3.6866 z m 12.155844,0 a 3.6866901,3.6866901 0 0 1 3.686597,3.6866 3.6866901,3.6866901 0 0 1 -3.686597,3.68659 3.6866901,3.6866901 0 0 1 -3.687107,-3.68659 3.6866901,3.6866901 0 0 1 3.687107,-3.6866 z m 12.155324,0 a 3.6866901,3.6866901 0 0 1 3.686597,3.6866 3.6866901,3.6866901 0 0 1 -3.686597,3.68659 3.6866901,3.6866901 0 0 1 -3.6866,-3.68659 3.6866901,3.6866901 0 0 1 3.6866,-3.6866 z m 12.155841,0 a 3.6866901,3.6866901 0 0 1 3.6866,3.6866 3.6866901,3.6866901 0 0 1 -3.6866,3.68659 3.6866901,3.6866901 0 0 1 -3.686597,-3.68659 3.6866901,3.6866901 0 0 1 3.686597,-3.6866 z m -36.467009,11.86853 a 3.6866901,3.6866901 0 0 1 3.6866,3.68659 3.6866901,3.6866901 0 0 1 -3.6866,3.68712 3.6866901,3.6866901 0 0 1 -3.6865867,-3.68712 3.6866901,3.6866901 0 0 1 3.6865867,-3.68659 z m 12.155844,0 a 3.6866901,3.6866901 0 0 1 3.686597,3.68659 3.6866901,3.6866901 0 0 1 -3.686597,3.68712 3.6866901,3.6866901 0 0 1 -3.687107,-3.68712 3.6866901,3.6866901 0 0 1 3.687107,-3.68659 z m 12.155324,0 a 3.6866901,3.6866901 0 0 1 3.686597,3.68659 3.6866901,3.6866901 0 0 1 -3.686597,3.68712 3.6866901,3.6866901 0 0 1 -3.6866,-3.68712 3.6866901,3.6866901 0 0 1 3.6866,-3.68659 z m 12.155841,0 a 3.6866901,3.6866901 0 0 1 3.6866,3.68659 3.6866901,3.6866901 0 0 1 -3.6866,3.68712 3.6866901,3.6866901 0 0 1 -3.686597,-3.68712 3.6866901,3.6866901 0 0 1 3.686597,-3.68659 z M 11.055591,100.35382 a 3.6866901,3.6866901 0 0 1 3.6866,3.6866 3.6866901,3.6866901 0 0 1 -3.6866,3.68659 3.6866901,3.6866901 0 0 1 -3.6865867,-3.68659 3.6866901,3.6866901 0 0 1 3.6865867,-3.6866 z m 12.155844,0 a 3.6866901,3.6866901 0 0 1 3.686597,3.6866 3.6866901,3.6866901 0 0 1 -3.686597,3.68659 3.6866901,3.6866901 0 0 1 -3.687107,-3.68659 3.6866901,3.6866901 0 0 1 3.687107,-3.6866 z m 12.155324,0 a 3.6866901,3.6866901 0 0 1 3.686597,3.6866 3.6866901,3.6866901 0 0 1 -3.686597,3.68659 3.6866901,3.6866901 0 0 1 -3.6866,-3.68659 3.6866901,3.6866901 0 0 1 3.6866,-3.6866 z m 12.155841,0 a 3.6866901,3.6866901 0 0 1 3.6866,3.6866 3.6866901,3.6866901 0 0 1 -3.6866,3.68659 3.6866901,3.6866901 0 0 1 -3.686597,-3.68659 3.6866901,3.6866901 0 0 1 3.686597,-3.6866 z" />
      <path
         class="cls-2"
         d="m -3.4477291,121.03912 v 6.70386 a 32.284624,32.284624 0 0 0 32.1715711,32.17159 v 0 a 32.284624,32.284624 0 0 0 32.171572,-32.17159 v -6.70386"
         id="path4685"
         style="opacity:0.5;fill:none;fill-opacity:1;stroke:#000000;stroke-opacity:1" />
      <path
         id="path4687"
         style="opacity:0.5;fill:#000000;stroke-width:0.869503"
         class="cls-3"
         d="m 24.115324,162.08998 v 15.00335 c -13.577515,0.69256 -23.9458253,4.37485 -23.9458253,8.81961 H 24.115324 v 0.008 h 9.2692 v -0.008 H 57.33035 c 0,-4.44476 -10.368309,-8.12705 -23.945826,-8.81961 v -15.00789 c -3.469301,0.45961 -6.35917,0.40745 -9.2692,0.005 z"
         sodipodi:nodetypes="ccccccccccc" />
    </g>
  </g>
</svg>
